<?xml version="1.0" standalone="no"?><!DOCTYPE svg PUBLIC "-//W3C//DTD SVG 1.1//EN" "http://www.w3.org/Graphics/SVG/1.1/DTD/svg11.dtd"><svg t="1667202424185" class="icon" viewBox="0 0 1024 1024" version="1.1" xmlns="http://www.w3.org/2000/svg" p-id="2162" data-darkreader-inline-fill="" xmlns:xlink="http://www.w3.org/1999/xlink" width="200" height="200"><path d="M725.909504 901.83725511H247.05979733a88.31340089 88.31340089 0 0 1-88.31340088-88.31340089L156.64924445 157.34829511a34.95253333 34.95253333 0 0 1 10.2527431-24.69979022 34.25348267 34.25348267 0 0 1 24.69979023-10.48576h640.79644444A34.71951645 34.71951645 0 0 1 861.52533333 139.17297778a34.25348267 34.25348267 0 0 1 2.79620267 33.08839822l-50.09863111 116.50844445v524.75403377a88.31340089 88.31340089 0 0 1-88.31340089 88.31340089zM226.55431111 192.06781155l2.097152 621.45604267a18.64135111 18.64135111 0 0 0 18.40833422 18.40833423h478.84970667a18.64135111 18.64135111 0 0 0 18.40833422-18.40833423V278.98311111a35.651584 35.651584 0 0 1 2.79620267-13.98101333l31.92331378-73.16730311z" fill="#1296db" p-id="2163" data-darkreader-inline-fill="" style="--darkreader-inline-fill:#0e78af;"></path><path d="M601.01245155 759.463936h-300.59178666a34.95253333 34.95253333 0 0 1 0-69.90506667h300.59178666a34.95253333 34.95253333 0 0 1 0 69.90506667zM460.27025067 634.33386667h-159.84958578a34.95253333 34.95253333 0 0 1 0-69.90506667h159.84958578a34.95253333 34.95253333 0 0 1 0 69.90506667zM460.27025067 509.20379733h-159.84958578a34.95253333 34.95253333 0 1 1 0-69.90506666h159.84958578a34.95253333 34.95253333 0 0 1 0 69.90506666zM601.01245155 383.84071111h-300.59178666a34.95253333 34.95253333 0 0 1 0-69.90506666h300.59178666a34.95253333 34.95253333 0 0 1 0 69.90506666z" fill="#1296db" p-id="2164" data-darkreader-inline-fill="" style="--darkreader-inline-fill:#0e78af;"></path></svg>